<svg width="454" height="296" viewBox="20.8 54.3 454 296" fill="none" xmlns="http://www.w3.org/2000/svg">
<path d="M21.0078 154.49C21.0078 99.2618 65.7793 54.4902 121.008 54.4902H454.008V195.49C454.008 250.719 409.236 295.49 354.008 295.49H21.0078V154.49Z" fill="#CBC308"/>
<path d="M50.9578 265.49L56.6578 238.49H46.7578L47.8578 233.29H74.3578L73.2578 238.49H63.4078L57.7078 265.49H50.9578ZM67.0324 265.49L72.0324 241.79H78.2824L78.0824 244.24C79.3158 243.574 80.7658 242.974 82.4324 242.44C84.1324 241.874 85.7658 241.49 87.3324 241.29L86.2824 246.39C85.3491 246.524 84.3158 246.724 83.1824 246.99C82.0824 247.257 80.9991 247.557 79.9324 247.89C78.8991 248.224 78.0158 248.574 77.2824 248.94L73.7824 265.49H67.0324ZM94.507 265.99C92.4737 265.99 90.707 265.624 89.207 264.89C87.7404 264.157 86.6904 262.974 86.057 261.34C85.457 259.674 85.4404 257.49 86.007 254.79C86.607 251.957 87.607 249.54 89.007 247.54C90.407 245.54 92.0904 244.007 94.057 242.94C96.0237 241.84 98.1237 241.29 100.357 241.29C101.69 241.29 102.84 241.44 103.807 241.74C104.774 242.04 105.674 242.574 106.507 243.34L106.807 241.79H113.557L108.557 265.49H102.757L102.807 263.29C101.574 264.19 100.29 264.874 98.957 265.34C97.657 265.774 96.1737 265.99 94.507 265.99ZM97.407 261.04C99.507 261.04 101.44 260.324 103.207 258.89L105.407 248.34C104.374 246.94 102.924 246.24 101.057 246.24C96.8237 246.24 94.0904 249.09 92.857 254.79C92.3237 257.224 92.407 258.874 93.107 259.74C93.8404 260.607 95.2737 261.04 97.407 261.04ZM114.298 265.49L119.298 241.79H125.548L125.348 244.04C126.481 243.307 127.831 242.674 129.398 242.14C130.998 241.574 132.615 241.29 134.248 241.29C140.248 241.29 142.615 244.29 141.348 250.29L138.148 265.49H131.398L134.548 250.64C134.881 249.04 134.815 247.907 134.348 247.24C133.881 246.574 132.815 246.24 131.148 246.24C129.915 246.24 128.731 246.474 127.598 246.94C126.465 247.407 125.465 247.99 124.598 248.69L121.048 265.49H114.298ZM151.893 265.99C150.126 265.99 148.476 265.857 146.943 265.59C145.409 265.357 144.193 265.057 143.293 264.69L144.493 259.09C145.559 259.557 146.793 259.924 148.193 260.19C149.626 260.424 150.959 260.54 152.193 260.54C153.859 260.54 155.059 260.44 155.793 260.24C156.526 260.04 156.959 259.59 157.093 258.89C157.259 258.09 156.843 257.507 155.843 257.14C154.876 256.774 153.443 256.257 151.543 255.59C149.509 254.857 148.009 253.957 147.043 252.89C146.109 251.79 145.859 250.274 146.293 248.34C146.793 246.074 147.943 244.34 149.743 243.14C151.543 241.907 154.376 241.29 158.243 241.29C159.709 241.29 161.076 241.407 162.343 241.64C163.609 241.84 164.659 242.09 165.493 242.39L164.293 247.94C163.493 247.507 162.526 247.19 161.393 246.99C160.293 246.757 159.243 246.64 158.243 246.64C156.809 246.64 155.643 246.74 154.743 246.94C153.876 247.14 153.359 247.574 153.193 248.24C153.059 248.974 153.409 249.49 154.243 249.79C155.076 250.09 156.409 250.54 158.243 251.14C160.876 252.007 162.576 253.024 163.343 254.19C164.143 255.357 164.343 256.89 163.943 258.79C163.443 261.157 162.243 262.957 160.343 264.19C158.476 265.39 155.659 265.99 151.893 265.99ZM164.928 276.29L172.228 241.79H178.078L177.978 243.99C179.178 243.124 180.444 242.457 181.778 241.99C183.111 241.524 184.611 241.29 186.278 241.29C189.578 241.29 191.994 242.274 193.528 244.24C195.094 246.207 195.428 249.324 194.528 253.59C193.628 257.857 192.028 260.99 189.728 262.99C187.428 264.99 184.394 265.99 180.628 265.99C177.961 265.99 175.828 265.39 174.228 264.19L171.678 276.29H164.928ZM179.978 261.04C181.978 261.04 183.628 260.44 184.928 259.24C186.228 258.04 187.161 256.124 187.728 253.49C188.261 250.957 188.228 249.124 187.628 247.99C187.061 246.824 185.628 246.24 183.328 246.24C181.261 246.24 179.344 246.957 177.578 248.39L175.278 259.24C175.844 259.774 176.478 260.207 177.178 260.54C177.911 260.874 178.844 261.04 179.978 261.04ZM208.37 265.99C204.137 265.99 201.17 264.924 199.47 262.79C197.77 260.624 197.337 257.574 198.17 253.64C199.003 249.707 200.637 246.674 203.07 244.54C205.503 242.374 209.02 241.29 213.62 241.29C217.92 241.29 220.92 242.374 222.62 244.54C224.32 246.674 224.753 249.707 223.92 253.64C223.087 257.574 221.47 260.624 219.07 262.79C216.67 264.924 213.103 265.99 208.37 265.99ZM209.62 260.24C211.787 260.24 213.437 259.757 214.57 258.79C215.703 257.79 216.537 256.074 217.07 253.64C217.57 251.207 217.503 249.507 216.87 248.54C216.237 247.54 214.753 247.04 212.42 247.04C210.287 247.04 208.637 247.54 207.47 248.54C206.337 249.507 205.52 251.207 205.02 253.64C204.487 256.074 204.537 257.79 205.17 258.79C205.803 259.757 207.287 260.24 209.62 260.24ZM226.163 265.49L231.163 241.79H237.413L237.213 244.24C238.447 243.574 239.897 242.974 241.563 242.44C243.263 241.874 244.897 241.49 246.463 241.29L245.413 246.39C244.48 246.524 243.447 246.724 242.313 246.99C241.213 247.257 240.13 247.557 239.063 247.89C238.03 248.224 237.147 248.574 236.413 248.94L232.913 265.49H226.163ZM254.114 265.99C251.481 265.99 249.631 265.274 248.564 263.84C247.498 262.407 247.231 260.457 247.764 257.99L250.114 246.99H246.764L247.864 241.79H251.214L252.314 236.69L259.464 234.69L257.964 241.79H263.964L262.464 246.99H256.864L254.614 257.54C254.348 258.84 254.414 259.74 254.814 260.24C255.248 260.707 256.181 260.94 257.614 260.94C258.514 260.94 259.514 260.774 260.614 260.44L259.614 265.09C258.014 265.69 256.181 265.99 254.114 265.99ZM271.629 265.99C268.895 265.99 266.879 265.207 265.579 263.64C264.312 262.04 263.995 259.707 264.629 256.64L267.779 241.79H274.529L271.429 256.49C271.095 258.09 271.195 259.257 271.729 259.99C272.262 260.69 273.362 261.04 275.029 261.04C276.195 261.04 277.329 260.807 278.429 260.34C279.529 259.874 280.495 259.29 281.329 258.59L284.879 241.79H291.629L286.629 265.49H280.379L280.579 263.24C279.412 264.04 278.095 264.707 276.629 265.24C275.162 265.74 273.495 265.99 271.629 265.99ZM311.609 265.99C309.843 265.99 308.193 265.857 306.659 265.59C305.126 265.357 303.909 265.057 303.009 264.69L304.209 259.09C305.276 259.557 306.509 259.924 307.909 260.19C309.343 260.424 310.676 260.54 311.909 260.54C313.576 260.54 314.776 260.44 315.509 260.24C316.243 260.04 316.676 259.59 316.809 258.89C316.976 258.09 316.559 257.507 315.559 257.14C314.593 256.774 313.159 256.257 311.259 255.59C309.226 254.857 307.726 253.957 306.759 252.89C305.826 251.79 305.576 250.274 306.009 248.34C306.509 246.074 307.659 244.34 309.459 243.14C311.259 241.907 314.093 241.29 317.959 241.29C319.426 241.29 320.793 241.407 322.059 241.64C323.326 241.84 324.376 242.09 325.209 242.39L324.009 247.94C323.209 247.507 322.243 247.19 321.109 246.99C320.009 246.757 318.959 246.64 317.959 246.64C316.526 246.64 315.359 246.74 314.459 246.94C313.593 247.14 313.076 247.574 312.909 248.24C312.776 248.974 313.126 249.49 313.959 249.79C314.793 250.09 316.126 250.54 317.959 251.14C320.593 252.007 322.293 253.024 323.059 254.19C323.859 255.357 324.059 256.89 323.659 258.79C323.159 261.157 321.959 262.957 320.059 264.19C318.193 265.39 315.376 265.99 311.609 265.99ZM326.895 265.49L334.045 231.79H340.795L336.845 250.34L347.495 241.79H355.195L343.595 251.49L350.745 265.49H343.595L338.595 255.04L335.295 257.69L333.645 265.49H326.895ZM361.646 265.99C359.612 265.99 357.846 265.624 356.346 264.89C354.879 264.157 353.829 262.974 353.196 261.34C352.596 259.674 352.579 257.49 353.146 254.79C353.746 251.957 354.746 249.54 356.146 247.54C357.546 245.54 359.229 244.007 361.196 242.94C363.162 241.84 365.262 241.29 367.496 241.29C368.829 241.29 369.979 241.44 370.946 241.74C371.912 242.04 372.812 242.574 373.646 243.34L373.946 241.79H380.696L375.696 265.49H369.896L369.946 263.29C368.712 264.19 367.429 264.874 366.096 265.34C364.796 265.774 363.312 265.99 361.646 265.99ZM364.546 261.04C366.646 261.04 368.579 260.324 370.346 258.89L372.546 248.34C371.512 246.94 370.062 246.24 368.196 246.24C363.962 246.24 361.229 249.09 359.996 254.79C359.462 257.224 359.546 258.874 360.246 259.74C360.979 260.607 362.412 261.04 364.546 261.04ZM390.687 265.99C388.053 265.99 386.203 265.274 385.137 263.84C384.07 262.407 383.803 260.457 384.337 257.99L386.687 246.99H383.337L384.437 241.79H387.787L388.887 236.69L396.037 234.69L394.537 241.79H400.537L399.037 246.99H393.437L391.187 257.54C390.92 258.84 390.987 259.74 391.387 260.24C391.82 260.707 392.753 260.94 394.187 260.94C395.087 260.94 396.087 260.774 397.187 260.44L396.187 265.09C394.587 265.69 392.753 265.99 390.687 265.99ZM407.201 237.44L408.301 232.14H415.651L414.551 237.44H407.201ZM401.801 265.49L405.751 246.79H402.201L403.851 241.79H413.551L408.551 265.49H401.801Z" fill="#00114B"/>
<path d="M32.0077 223.99C18.0077 226.99 71.5089 108.375 132.509 94.6798C193.51 80.9844 407.508 82.4902 407.508 82.4902" stroke="#00114B" stroke-width="4"/>
<path d="M145.024 224.035C183.519 226.521 191.478 102.812 252.478 89.1163C313.479 75.4209 445.508 84.4902 445.508 84.4902" stroke="#00114B" stroke-width="4"/>
<line x1="146.047" y1="224.09" x2="32.0079" y2="224.09" stroke="#00114B" stroke-width="4"/>
<path d="M394.791 151.454C394.657 163.533 391.836 174.352 387.482 182.07C383.089 189.859 377.416 194.072 371.676 194.036C365.936 193.999 360.357 189.716 356.137 181.872C351.955 174.1 349.373 163.246 349.507 151.168C349.641 139.089 352.463 128.27 356.816 120.552C361.209 112.763 366.882 108.55 372.622 108.586C378.362 108.623 383.941 112.906 388.161 120.75C392.343 128.522 394.925 139.376 394.791 151.454Z" stroke="#00114B" stroke-width="4"/>
<path d="M388.143 151.516C388.032 161.546 385.95 170.516 382.763 176.896C379.509 183.412 375.46 186.615 371.657 186.591C367.853 186.567 363.876 183.313 360.766 176.757C357.722 170.338 355.838 161.343 355.949 151.313C356.06 141.283 358.143 132.313 361.329 125.933C364.583 119.417 368.632 116.214 372.436 116.238C376.239 116.262 380.217 119.516 383.326 126.072C386.371 132.492 388.254 141.486 388.143 151.516Z" stroke="#00114B" stroke-width="4"/>
<line y1="-2" x2="43.3615" y2="-2" transform="matrix(0.99998 0.00632213 -0.00896132 0.99996 328.879 109.68)" stroke="#00114B" stroke-width="4"/>
<line y1="-2" x2="43.584" y2="-2" transform="matrix(0.999827 0.0186114 -0.0205424 0.999789 328.111 195.436)" stroke="#00114B" stroke-width="4"/>
<path d="M252.829 118.035L253.82 99.2286L297.602 101.385L297.1 117.33L252.829 118.035Z" stroke="#00114B" stroke-width="4"/>
<mask id="mask0_46_167" style="mask-type:alpha" maskUnits="userSpaceOnUse" x="286" y="91" width="45" height="117">
<rect x="286.866" y="91.9824" width="43" height="115.02" transform="rotate(-0.168837 286.866 91.9824)" fill="#D9D9D9"/>
</mask>
<g mask="url(#mask0_46_167)">
<path d="M352.014 150.532C351.881 162.611 349.059 173.43 344.706 181.148C340.312 188.937 334.639 193.15 328.899 193.114C323.159 193.077 317.58 188.794 313.36 180.95C309.178 173.178 306.596 162.324 306.73 150.246C306.864 138.167 309.686 127.348 314.039 119.63C318.432 111.841 324.105 107.628 329.845 107.664C335.585 107.701 341.164 111.984 345.385 119.828C349.566 127.601 352.148 138.454 352.014 150.532Z" stroke="#00114B" stroke-width="4"/>
</g>
<path d="M75.5723 202.975C79.6817 208.107 36.3304 204.377 44.2184 194.166C52.1064 183.956 77.3507 199.615 75.5634 204.182" stroke="#00114B" stroke-width="3"/>
<path d="M122.727 203.193C117.705 208.354 170.344 204.331 160.839 194.171C151.334 184.012 120.592 199.844 122.73 204.399" stroke="#00114B" stroke-width="3"/>
<line x1="217.008" y1="127.49" x2="309.404" y2="127.49" stroke="#00114B" stroke-width="2"/>
<line x1="392.008" y1="127.49" x2="444.408" y2="127.49" stroke="#00114B" stroke-width="2"/>
</svg>
