<svg width="433" height="210" viewBox="0 0 433 210" fill="none" xmlns="http://www.w3.org/2000/svg">
<path d="M0 100C0 44.7715 44.7715 0 100 0H433V110C433 165.228 388.228 210 333 210H0V100Z" fill="#DDEEDF"/>
<path d="M372.791 110.454C372.657 122.533 369.835 133.352 365.482 141.07C361.089 148.859 355.416 153.072 349.676 153.036C343.936 152.999 338.357 148.716 334.137 140.872C329.955 133.1 327.373 122.246 327.507 110.168C327.641 98.0843 330.429 87.1107 334.754 79.2393C339.126 71.2837 344.768 66.9638 350.478 66.9999C356.197 67.036 361.817 71.4383 366.085 79.4499C370.309 87.3754 372.925 98.3796 372.791 110.454Z" stroke="#56A95E" stroke-width="4"/>
<path d="M366.644 110.52C366.532 120.609 364.438 129.656 361.211 136.118C357.933 142.681 353.754 146.117 349.652 146.091C345.55 146.065 341.447 142.577 338.315 135.973C335.231 129.471 333.338 120.399 333.45 110.31C333.561 100.221 335.655 91.1732 338.883 84.7112C342.16 78.1479 346.34 74.7124 350.442 74.7383C354.544 74.7643 358.647 78.2521 361.779 84.8559C364.862 91.3579 366.756 100.431 366.644 110.52Z" stroke="#56A95E" stroke-width="3"/>
<line y1="-2" x2="43.3615" y2="-2" transform="matrix(0.99998 0.00632213 -0.00896132 0.99996 306.879 68.6797)" stroke="#56A95E" stroke-width="4"/>
<line y1="-2" x2="43.584" y2="-2" transform="matrix(0.999827 0.0186114 -0.0205424 0.999789 306.111 154.436)" stroke="#56A95E" stroke-width="4"/>
<path d="M230.829 77.0349L231.82 58.2286L275.602 60.3854L275.1 76.3296L230.829 77.0349Z" stroke="#56A95E" stroke-width="4"/>
<mask id="mask0_116_25" style="mask-type:alpha" maskUnits="userSpaceOnUse" x="264" y="59" width="45" height="109">
<rect x="264.89" y="59.198" width="43" height="108.071" transform="rotate(-0.168837 264.89 59.198)" fill="#D9D9D9"/>
</mask>
<g mask="url(#mask0_116_25)">
<path d="M330.013 109.53C329.879 121.613 327.087 132.535 322.759 140.354C318.386 148.254 312.741 152.537 307.022 152.5C301.295 152.464 295.682 148.101 291.423 140.146C287.207 132.272 284.596 121.319 284.729 109.244C284.863 97.1652 287.685 86.3462 292.038 78.6279C296.431 70.8385 302.104 66.626 307.844 66.6623C313.584 66.6986 319.163 70.9822 323.384 78.826C327.565 86.5983 330.147 97.4515 330.013 109.53Z" stroke="#56A95E" stroke-width="4"/>
</g>
<path d="M53.5723 161.975C57.6817 167.107 14.3304 163.377 22.2184 153.166C30.1064 142.956 55.3507 158.615 53.5634 163.182" stroke="#56A95E" stroke-width="3"/>
<path d="M100.727 162.193C95.7055 167.354 148.344 163.331 138.839 153.171C129.334 143.012 98.5916 158.844 100.73 163.399" stroke="#56A95E" stroke-width="3"/>
<line x1="195.008" y1="86.4902" x2="287.404" y2="86.4902" stroke="#56A95E" stroke-width="2"/>
<path d="M370.008 86.4902H412.5" stroke="#56A95E" stroke-width="2"/>
<path d="M138.051 186L7.65039 186" stroke="#56A95E" stroke-width="4"/>
<path d="M396.958 21.7456C282.047 22.6415 203.958 23.7449 135.958 31.7449" stroke="#56A95E" stroke-width="4"/>
<path d="M58.6508 71.9621C28.5498 112.611 -0.0109265 184.093 8.15039 186" stroke="#56A95E" stroke-width="4"/>
<path d="M136.056 31.7334C93.9532 35.6747 71.5361 52.6165 58.5362 72.1165" stroke="#56A95E" stroke-width="4"/>
<path d="M413 21.4998C362.5 21.4998 320 23.4998 274.959 29.7448" stroke="#56A95E" stroke-width="4"/>
<path d="M197.651 69.9622C167.55 110.611 148.44 183.712 137.65 186" stroke="#56A95E" stroke-width="4"/>
<path d="M275.056 29.7334C232.953 33.6747 210.536 50.6165 197.536 70.1165" stroke="#56A95E" stroke-width="4"/>
</svg>
